# Grass blade - Acerola style
# 12 vertices, 6 pairs (left/right), tapered with cubic-root falloff
# Width = 0.05, Height = 1.0

# Level 0 (base) - widthMod = 1.000
v -0.050  0.000  0.000
v  0.050  0.000  0.000

# Level 1 - widthMod = 0.885
v -0.044  0.200  0.000
v  0.044  0.200  0.000

# Level 2 - widthMod = 0.763
v -0.038  0.400  0.000
v  0.038  0.400  0.000

# Level 3 - widthMod = 0.630
v -0.032  0.600  0.000
v  0.032  0.600  0.000

# Level 4 - widthMod = 0.481
v -0.024  0.800  0.000
v  0.024  0.800  0.000

# Level 5 (tip) - widthMod = 0.0 (pointed tip)
v  0.000  1.000  0.000
v  0.000  1.000  0.000

vn 0.0 0.0 1.0
vn 0.0 0.0 -1.0

# Front faces
f 1//1 2//1 4//1 3//1
f 3//1 4//1 6//1 5//1
f 5//1 6//1 8//1 7//1
f 7//1 8//1 10//1 9//1
f 9//1 10//1 12//1 11//1

# Back faces
f 3//2 4//2 2//2 1//2
f 5//2 6//2 4//2 3//2
f 7//2 8//2 6//2 5//2
f 9//2 10//2 8//2 7//2
f 11//2 12//2 10//2 9//2
